#N canvas 463 38 518 642 10;
#X obj 156 561 bng 15 250 50 0 empty empty sample1 17 7 0 10 -262144
-1 -1;
#X obj 235 561 bng 15 250 50 0 empty empty sample2 17 7 0 10 -262144
-1 -1;
#X obj 315 561 bng 15 250 50 0 empty empty sample3 17 7 0 10 -262144
-1 -1;
#X obj 110 103 tgl 15 0 empty empty empty 17 7 0 10 -262144 -1 -1 0
1;
#X obj 110 121 metro 250;
#X obj 179 103 hradio 15 1 0 8 empty empty empty 0 -8 0 10 -262144
-1 -1 2;
#X obj 179 141 + 1;
#X obj 264 133 hradio 15 1 0 8 empty empty empty 0 -8 0 10 -262144
-1 -1 1;
#X obj 264 171 + 1;
#X obj 280 282 f;
#X obj 305 282 + 1;
#X obj 280 301 %, f 12;
#X obj 349 163 hradio 15 1 0 8 empty empty empty 0 -8 0 10 -262144
-1 -1 1;
#X obj 349 201 + 1;
#X obj 195 282 f;
#X obj 220 282 + 1;
#X obj 195 301 %, f 12;
#X obj 110 282 f;
#X obj 135 282 + 1;
#X obj 110 301 %, f 12;
#X obj 244 381 sel, f 4;
#X obj 329 381 sel, f 4;
#X obj 414 381 sel, f 4;
#X obj 244 402 bang;
#X obj 329 402 bang;
#X obj 414 402 bang;
#X obj 244 436 f;
#X obj 272 436 + 1;
#X obj 244 456 % 3;
#X obj 179 121 t f f, f 9;
#X obj 264 151 t f f, f 9;
#X obj 349 181 t f f, f 9;
#X obj 110 258 spigot;
#X obj 195 258 spigot;
#X obj 280 258 spigot;
#X obj 30 206 f, f 7;
#X obj 30 224 hradio 15 1 0 3 empty empty empty 0 -8 0 10 -262144 -1
-1 0;
#X obj 122 237 == 0;
#X obj 207 237 == 1;
#X obj 292 237 == 2;
#X msg 385 268 0;
#X obj 110 324 hradio 15 1 0 8 empty empty empty 0 -8 0 10 -262144
-1 -1 2;
#X obj 110 344 hradio 15 1 0 8 empty empty empty 0 -8 0 10 -262144
-1 -1 1;
#X obj 110 364 hradio 15 1 0 8 empty empty empty 0 -8 0 10 -262144
-1 -1 1;
#N canvas 0 23 747 427 sonidosERPD 0;
#X obj 32 126 soundfiler;
#X obj 32 176 soundfiler;
#X obj 32 226 soundfiler;
#X msg 32 108 read -resize erpd2-uprise/sub.wav sample1;
#X msg 32 158 read -resize erpd2-uprise/ride.wav sample2;
#X msg 32 208 read -resize erpd2-uprise/synth.wav sample3;
#X obj 32 34 loadbang;
#X obj 32 71 t b b b;
#X obj 352 156 *~ 0.7;
#X obj 352 192 dac~;
#X obj 352 108 tabplay~ sample1;
#X obj 472 108 tabplay~ sample2;
#X obj 592 108 tabplay~ sample3;
#X obj 352 71 inlet;
#X obj 472 71 inlet;
#X obj 592 71 inlet;
#N canvas 0 22 450 278 (subpatch) 0;
#X array sample1 96000 float 2;
#X coords 0 1 96000 -1 100 70 1 0 0;
#X restore 32 300 graph;
#N canvas 0 22 450 278 (subpatch) 0;
#X array sample2 96000 float 2;
#X coords 0 1 96000 -1 100 70 1 0 0;
#X restore 142 300 graph;
#N canvas 0 22 450 278 (subpatch) 0;
#X array sample3 96000 float 2;
#X coords 0 1 96000 -1 100 70 1 0 0;
#X restore 252 300 graph;
#X connect 3 0 0 0;
#X connect 4 0 1 0;
#X connect 5 0 2 0;
#X connect 7 0 3 0;
#X connect 7 1 4 0;
#X connect 7 2 5 0;
#X connect 8 0 9 0;
#X connect 8 0 9 1;
#X connect 10 0 8 0;
#X connect 11 0 8 0;
#X connect 12 0 8 0;
#X connect 13 0 10 0;
#X connect 14 0 11 0;
#X connect 15 0 12 0;
#X restore 156 584 pd sonidosERPD;
#X f 27;
#X obj 20 23 cnv 15 250 22 empty empty ERPD-2/Contadores-alternados
10 12 0 14 -159719 -794 0;
#X text 28 61 [iom!] \, 2020;
#X text 29 48 Tres contadores que se suceden;
#X connect 0 0 44 0;
#X connect 1 0 44 1;
#X connect 2 0 44 2;
#X connect 3 0 4 0;
#X connect 4 0 32 0;
#X connect 4 0 34 0;
#X connect 4 0 33 0;
#X connect 4 0 35 0;
#X connect 5 0 29 0;
#X connect 6 0 19 1;
#X connect 7 0 30 0;
#X connect 8 0 16 1;
#X connect 9 0 10 0;
#X connect 9 0 11 0;
#X connect 10 0 9 1;
#X connect 11 0 22 0;
#X connect 11 0 43 0;
#X connect 11 0 2 0;
#X connect 12 0 31 0;
#X connect 13 0 11 1;
#X connect 14 0 15 0;
#X connect 14 0 16 0;
#X connect 15 0 14 1;
#X connect 16 0 21 0;
#X connect 16 0 42 0;
#X connect 16 0 1 0;
#X connect 17 0 18 0;
#X connect 17 0 19 0;
#X connect 18 0 17 1;
#X connect 19 0 20 0;
#X connect 19 0 41 0;
#X connect 19 0 0 0;
#X connect 20 0 23 0;
#X connect 21 0 24 0;
#X connect 22 0 25 0;
#X connect 23 0 26 0;
#X connect 24 0 26 0;
#X connect 25 0 26 0;
#X connect 26 0 27 0;
#X connect 26 0 28 0;
#X connect 27 0 26 1;
#X connect 28 0 35 1;
#X connect 29 0 6 0;
#X connect 29 1 20 1;
#X connect 30 0 8 0;
#X connect 30 1 21 1;
#X connect 31 0 13 0;
#X connect 31 1 22 1;
#X connect 32 0 17 0;
#X connect 33 0 14 0;
#X connect 34 0 9 0;
#X connect 35 0 36 0;
#X connect 36 0 37 0;
#X connect 36 0 39 0;
#X connect 36 0 38 0;
#X connect 37 0 32 1;
#X connect 38 0 33 1;
#X connect 39 0 34 1;
#X connect 40 0 26 0;
#X connect 40 0 35 0;
#X connect 40 0 17 1;
#X connect 40 0 14 1;
#X connect 40 0 9 1;
